<svg width="100" height="100" viewBox="0 0 100 100" fill="none" xmlns="http://www.w3.org/2000/svg">
<path d="M6.57276 48.3699C6.57276 49.035 7.12049 49.5827 7.78559 49.5827C8.45069 49.5827 8.99843 49.035 8.99843 48.3699C8.99843 47.7048 8.45069 47.157 7.78559 47.157C7.10744 47.157 6.57276 47.6917 6.57276 48.3699Z" fill="#434C63"/>
<path d="M50 0C22.4309 0 0 22.4309 0 50C0 77.5691 22.4309 100 50 100C77.5691 100 100 77.5691 100 50C100 22.4309 77.5691 0 50 0ZM50 98.6959C23.1481 98.6959 1.30412 76.8519 1.30412 50C1.30412 23.1481 23.1481 1.30412 50 1.30412C76.8518 1.30412 98.6959 23.1481 98.6959 50C98.6959 76.8519 76.8518 98.6959 50 98.6959Z" fill="#434C63"/>
<path d="M14.4757 49.9609C14.4757 69.5749 30.4382 85.5373 50.0521 85.5373C69.6661 85.5373 85.6286 69.5749 85.6286 49.9609C85.6286 30.3469 69.6661 14.3845 50.0521 14.3845C30.4382 14.3845 14.4757 30.3469 14.4757 49.9609ZM50.0521 15.819C68.8706 15.819 84.194 31.1294 84.194 49.9609C84.194 68.7924 68.8836 84.1028 50.0521 84.1028C31.2206 84.1028 15.9102 68.7924 15.9102 49.9609C15.9102 31.1294 31.2206 15.819 50.0521 15.819Z" fill="#434C63"/>
<path d="M11.2676 42.1753C11.3067 41.9145 11.3198 41.6667 11.2937 41.4319C11.2676 41.1972 11.2024 40.9885 11.1111 40.819C11.0198 40.6364 10.8894 40.493 10.7329 40.3756C10.5764 40.2582 10.3938 40.18 10.1852 40.1409C10.0417 40.1148 9.89826 40.1148 9.7548 40.1409C9.61135 40.1669 9.49399 40.2321 9.37662 40.3104C9.25924 40.3886 9.15491 40.506 9.06362 40.6364C8.97233 40.7798 8.89409 40.9363 8.84192 41.132H8.82889C8.8028 40.8059 8.69847 40.5451 8.54198 40.3495C8.38548 40.1539 8.17682 40.0365 7.90295 39.9843C7.56388 39.9322 7.27698 40.0235 7.02919 40.2582C6.79445 40.506 6.62491 40.8972 6.53362 41.4319L6.23368 43.1664L10.9416 43.975L11.2676 42.1753ZM8.42461 42.0449L8.3594 42.4491L7.17265 42.2405L7.25089 41.8232C7.30306 41.5493 7.36827 41.3537 7.45956 41.2363C7.55084 41.119 7.70733 41.0798 7.90295 41.119C8.12465 41.1581 8.28115 41.2624 8.37244 41.4189C8.45068 41.5623 8.46374 41.784 8.42461 42.0449ZM10.5112 42.2274L10.4199 42.7882L9.08971 42.5665L9.18101 42.0579C9.23317 41.7449 9.32444 41.5102 9.46789 41.3798C9.59831 41.2363 9.7809 41.1972 10.0156 41.2363C10.2504 41.2754 10.4069 41.3798 10.4851 41.5493C10.5503 41.7188 10.5634 41.9405 10.5112 42.2274Z" fill="#434C63"/>
<path d="M12.037 38.6802L9.82003 35.7459C9.74178 35.6416 9.67657 35.5503 9.61137 35.4721C9.54616 35.3938 9.494 35.3417 9.45488 35.3025V35.2895C9.52008 35.3156 9.61138 35.3547 9.72875 35.3938C9.84612 35.433 9.98957 35.4851 10.1461 35.5242L12.7674 36.3328L13.0542 35.3808L8.48982 33.9854L8.15076 35.0809L10.3417 37.976C10.4199 38.0803 10.4851 38.1716 10.5373 38.2368C10.5895 38.302 10.6416 38.3542 10.6808 38.3933V38.4063C10.6286 38.3803 10.5373 38.3412 10.433 38.302C10.3286 38.2629 10.1852 38.2238 10.0287 38.1716L7.44654 37.3761L7.15963 38.315L11.7241 39.7235L12.037 38.6802Z" fill="#434C63"/>
<path d="M11.2415 29.6949L10.4982 29.3688L8.86803 33.0073L9.61137 33.3334L10.2113 32.0031L13.8237 33.6203L14.2671 32.6422L10.6416 31.0251L11.2415 29.6949Z" fill="#434C63"/>
<path d="M16.6145 28.2343L15.9364 27.843L14.9844 29.5123L13.915 28.8993L14.7366 27.4648L14.0584 27.0736L13.2368 28.5081L12.2066 27.9212L13.1064 26.3694L12.4152 25.9781L10.9938 28.4559L15.1408 30.8294L16.6145 28.2343Z" fill="#434C63"/>
<path d="M18.1012 26.1085C18.2707 25.8737 18.3881 25.6521 18.4663 25.4304C18.5446 25.2087 18.5707 25 18.5576 24.7913C18.5446 24.5957 18.4924 24.4001 18.3881 24.2306C18.2838 24.061 18.1403 23.9045 17.9577 23.7611C17.7882 23.6437 17.6056 23.5654 17.423 23.5263C17.2405 23.4872 17.0579 23.5003 16.8753 23.5524C16.6927 23.6046 16.5102 23.6959 16.3276 23.8263C16.145 23.9567 15.9755 24.1393 15.819 24.361L15.3234 25.0522L14.4236 24.4001L15.6233 22.7439L14.9843 22.2874L13.1716 24.8174L17.0448 27.6082L18.1012 26.1085ZM16.3015 24.9739C16.4971 24.7131 16.6797 24.5436 16.8492 24.4914C17.0188 24.4262 17.2144 24.4783 17.41 24.6218C17.6187 24.7652 17.7099 24.9348 17.7099 25.1304C17.7099 25.326 17.6056 25.5477 17.423 25.8085L17.0579 26.3172L15.9363 25.5086L16.3015 24.9739Z" fill="#434C63"/>
<path d="M17.6578 22.8743C17.9186 23.109 18.2055 23.2916 18.4924 23.3959C18.7924 23.5003 19.0793 23.5524 19.3792 23.5263C19.6792 23.5002 19.9661 23.422 20.2661 23.2655C20.553 23.109 20.8268 22.8873 21.0876 22.6004C21.4919 22.157 21.7527 21.7266 21.8832 21.3223L21.2441 20.7485C21.1529 21.1528 20.9572 21.531 20.6442 21.8832C20.4747 22.0657 20.2921 22.2092 20.1095 22.3135C19.927 22.4178 19.7313 22.47 19.5357 22.47C19.3401 22.483 19.1445 22.4439 18.9358 22.3657C18.7272 22.2874 18.5446 22.1701 18.362 22.0005C18.1664 21.831 18.023 21.6354 17.9186 21.4398C17.8143 21.2441 17.7621 21.0355 17.7491 20.8268C17.736 20.6182 17.7752 20.4095 17.8534 20.2008C17.9317 19.9922 18.0621 19.7835 18.2316 19.6009C18.5185 19.2879 18.8446 19.0662 19.2228 18.9358L18.5446 18.3229C18.2316 18.4924 17.8925 18.7663 17.5535 19.1445C17.2796 19.4444 17.084 19.7574 16.9536 20.0835C16.8232 20.4095 16.758 20.7485 16.771 21.0746C16.784 21.4006 16.8623 21.7266 17.0057 22.0266C17.1622 22.3396 17.3839 22.6134 17.6578 22.8743Z" fill="#434C63"/>
<path d="M23.3568 20.24L21.8049 18.4925L21.8179 18.4794C21.8701 18.5055 21.9223 18.5185 21.9875 18.5316C22.0396 18.5446 22.0918 18.5577 22.1179 18.5707L24.6479 19.1184L25.5999 18.2707L22.5352 17.6709L22.3265 14.8018L21.4397 15.5843L21.6614 18.036C21.6614 18.0882 21.6745 18.1404 21.6875 18.2056C21.7006 18.2577 21.7006 18.3099 21.7136 18.349L21.7006 18.362L20.2139 16.6797L19.4184 17.384L22.5874 20.9572L23.3568 20.24Z" fill="#434C63"/>
<path d="M26.7345 17.4622L26.8388 13.7845C26.8388 13.6541 26.8388 13.5368 26.8388 13.4324C26.8388 13.3281 26.8258 13.2499 26.8258 13.1977L26.8388 13.1846C26.8649 13.2499 26.9171 13.3281 26.9823 13.4324C27.0475 13.5368 27.1257 13.6541 27.217 13.7976L28.7689 16.0667L29.5905 15.506L26.904 11.5675L25.965 12.2066L25.8738 15.832C25.8738 15.9624 25.8738 16.0798 25.8738 16.158C25.8738 16.2363 25.8738 16.3145 25.8868 16.3667L25.8738 16.3798C25.8477 16.3276 25.7955 16.2493 25.7433 16.145C25.6781 16.0407 25.5999 15.9233 25.5086 15.7929L23.9958 13.5629L23.1742 14.1236L25.8607 18.062L26.7345 17.4622Z" fill="#434C63"/>
<path d="M30.7903 13.1195C30.7772 13.1977 30.7773 13.276 30.7773 13.3281H30.7642C30.7381 13.276 30.712 13.1847 30.6599 13.0803C30.6077 12.976 30.5555 12.8456 30.4773 12.7021L29.2906 10.2764L28.4037 10.7068L30.5034 14.9974L31.4684 14.5279L32.0944 10.9024C32.1205 10.772 32.1335 10.6677 32.1466 10.5633C32.1596 10.459 32.1596 10.3808 32.1596 10.3286L32.1727 10.3156C32.1987 10.3808 32.2248 10.4721 32.277 10.5764C32.3292 10.6938 32.3944 10.8242 32.4596 10.9676L33.6724 13.4324L34.5592 13.0021L32.4596 8.71152L31.4293 9.20709L30.8164 12.7934C30.8164 12.9238 30.7903 13.0412 30.7903 13.1195Z" fill="#434C63"/>
<path d="M29.121 9.19404C29.434 9.28533 29.76 9.24622 30.1121 9.08973C30.4382 8.93323 30.6729 8.69847 30.8033 8.37244C30.9337 8.05945 30.9337 7.7334 30.8033 7.38129L30.2556 7.64213C30.3208 7.83775 30.3078 8.00729 30.2426 8.17683C30.1774 8.34636 30.047 8.46374 29.8774 8.55503C29.4731 8.75065 29.1471 8.67239 28.9254 8.29419L28.3777 8.55503C28.5602 8.8941 28.808 9.10275 29.121 9.19404Z" fill="#434C63"/>
<path d="M38.7585 11.5936L37.663 7.77255L39.4757 7.25091L39.254 6.48148L36.4241 7.30305L37.7413 11.8805L38.7585 11.5936Z" fill="#434C63"/>
<path d="M40.4929 9.6766C40.6625 9.95046 40.8711 10.1722 41.1189 10.3417C41.3667 10.5112 41.6536 10.6286 41.9666 10.6938C42.2796 10.759 42.6186 10.759 42.9838 10.6938C43.349 10.6286 43.675 10.5112 43.9619 10.3417C44.2488 10.1722 44.4705 9.9635 44.6531 9.71572C44.8356 9.46794 44.953 9.16801 45.0182 8.84198C45.0834 8.51595 45.0834 8.16384 45.0182 7.78565C44.953 7.44657 44.8487 7.13356 44.6922 6.85969C44.5357 6.58583 44.327 6.36414 44.0793 6.18156C43.8315 5.99899 43.5576 5.88162 43.2446 5.81641C42.9316 5.7512 42.5926 5.73815 42.2404 5.80336C41.8492 5.86856 41.5101 5.98593 41.2232 6.16851C40.9363 6.33804 40.7016 6.55975 40.519 6.82057C40.3364 7.08139 40.2191 7.36832 40.1539 7.69435C40.0887 8.02038 40.0887 8.35946 40.1539 8.72461C40.2191 9.10281 40.3234 9.40273 40.4929 9.6766ZM41.4058 7.26397C41.4971 7.09443 41.6275 6.96402 41.784 6.85969C41.9405 6.75536 42.1231 6.67714 42.3317 6.63801C42.5534 6.59889 42.7491 6.59886 42.9186 6.65103C43.1012 6.69015 43.2577 6.78144 43.3881 6.89881C43.5185 7.01618 43.6358 7.18571 43.7271 7.38133C43.8184 7.57695 43.8836 7.79868 43.9358 8.0595C43.9749 8.32032 43.988 8.54202 43.9619 8.75068C43.9358 8.95934 43.8836 9.1419 43.7923 9.29839C43.7011 9.45489 43.5837 9.58532 43.4272 9.68965C43.2707 9.79398 43.0881 9.85919 42.8664 9.89832C42.6578 9.93744 42.4752 9.92439 42.2926 9.88526C42.11 9.8331 41.9535 9.75483 41.8231 9.62442C41.6797 9.50705 41.5623 9.35057 41.471 9.15496C41.3797 8.95934 41.3015 8.75068 41.2623 8.5029C41.2232 8.25511 41.2102 8.03341 41.2363 7.81171C41.2623 7.59001 41.3145 7.42046 41.4058 7.26397Z" fill="#434C63"/>
<path d="M46.3876 9.59831C46.6093 9.79393 46.8831 9.93738 47.1961 10.0417C47.5091 10.133 47.8612 10.1852 48.2525 10.1591C48.8524 10.133 49.3349 10.0156 49.7261 9.82003L49.687 8.95931C49.3349 9.18101 48.9306 9.31142 48.4611 9.32446C48.2134 9.3375 47.9786 9.31142 47.783 9.24621C47.5743 9.18101 47.4048 9.07666 47.2613 8.94625C47.1179 8.81584 47.0005 8.6463 46.9223 8.45068C46.844 8.25506 46.7919 8.03339 46.7788 7.7856C46.7658 7.52478 46.7919 7.29003 46.8701 7.08137C46.9353 6.87271 47.0396 6.69011 47.1831 6.53362C47.3266 6.37712 47.4961 6.25976 47.7047 6.16847C47.9134 6.07718 48.1481 6.02502 48.409 6.01198C48.8393 5.9859 49.2306 6.06413 49.5827 6.24671L49.5436 5.33385C49.2045 5.22952 48.7741 5.17735 48.2655 5.20343C47.8612 5.21647 47.4961 5.30775 47.1701 5.43816C46.844 5.58162 46.5702 5.76418 46.3485 5.99893C46.1137 6.23367 45.9442 6.50755 45.8268 6.83358C45.7094 7.15961 45.6573 7.49868 45.6834 7.88992C45.6964 8.24203 45.7746 8.56805 45.905 8.85495C45.9833 9.16794 46.1659 9.40269 46.3876 9.59831Z" fill="#434C63"/>
<path d="M50.9129 10.1461C51.1737 10.1591 51.3954 10.1461 51.578 10.0939C51.7606 10.0418 51.9431 9.95046 52.0996 9.83308C52.2561 9.71571 52.3996 9.55925 52.543 9.37667C52.6865 9.1941 52.8169 8.9724 52.9734 8.72461L54.8253 5.5295L53.7037 5.46431L52.7387 7.29007C52.6865 7.3944 52.6213 7.51176 52.5691 7.60305C52.5169 7.70738 52.4648 7.8117 52.4126 7.91602C52.3996 7.85082 52.3865 7.78563 52.3605 7.73347C52.3344 7.6813 52.3213 7.61609 52.3083 7.56393L51.3824 5.33389L50.2347 5.25565L51.7997 8.71156C51.7214 8.84197 51.6301 8.9463 51.5519 9.03759C51.4736 9.12888 51.3954 9.19408 51.3041 9.2332C51.2259 9.28536 51.1476 9.31143 51.0694 9.33751C50.9911 9.35055 50.9129 9.36361 50.8346 9.35057C50.6129 9.33752 50.4043 9.25927 50.2086 9.1419L50.1565 10.0157C50.2478 10.0548 50.3391 10.0939 50.4564 10.12C50.5868 10.12 50.7303 10.1331 50.9129 10.1461Z" fill="#434C63"/>
<path d="M53.8602 9.4027L53.495 11.4502L54.447 11.6197L54.6687 10.3417L57.9812 10.9285L57.7595 12.1935L58.7115 12.363L58.9332 11.1111L59.9374 11.4241L60.6286 10.4721L62.35 11.0068L62.4022 12.1805L63.5107 12.5195L63.1716 7.42045L62.024 7.06831L58.9723 10.9155L59.0766 10.3156L58.3594 10.1852L59.0506 6.25976L56.2076 5.76419C56.1293 6.11631 56.025 6.45539 55.8946 6.79446C55.7642 7.13353 55.6207 7.45956 55.4642 7.77255C55.2947 8.08554 55.1252 8.38549 54.9295 8.6724C54.7339 8.9593 54.5253 9.22011 54.3166 9.46789L53.8602 9.4027ZM62.037 8.54198C62.0892 8.46373 62.1413 8.38549 62.1935 8.30724C62.2457 8.229 62.2848 8.16379 62.3109 8.09858L62.337 8.11163C62.3239 8.17684 62.3109 8.26809 62.3109 8.35938C62.3109 8.45067 62.3109 8.54197 62.3109 8.62022L62.363 10.2243L61.1241 9.8461L62.037 8.54198ZM55.8816 9.01144C56.0381 8.76366 56.1945 8.50284 56.338 8.24201C56.4814 7.98119 56.6119 7.70734 56.7162 7.44652C56.8205 7.1857 56.9118 6.93792 56.964 6.71622L57.8638 6.8727L57.3161 10.0156L55.4121 9.67656C55.5686 9.48094 55.7251 9.25922 55.8816 9.01144Z" fill="#434C63"/>
<path d="M65.4799 11.5937L65.9885 11.8154C66.2624 11.9327 66.5102 11.998 66.771 12.024C67.0188 12.0501 67.2535 12.024 67.4622 11.9719C67.6708 11.9197 67.8665 11.8023 68.0229 11.6589C68.1794 11.5154 68.3229 11.3328 68.4142 11.1111C68.6098 10.6677 68.6098 10.2634 68.4142 9.91133C68.2186 9.54617 67.8404 9.24625 67.2666 8.99847L65.7407 8.33335L63.8237 12.7022L64.8018 13.1325L65.4799 11.5937ZM66.4189 9.45492L66.8362 9.63747C67.1231 9.76789 67.3057 9.91133 67.397 10.0809C67.4883 10.2504 67.4752 10.4591 67.3709 10.7069C67.2535 10.9677 67.097 11.1242 66.9014 11.1894C66.7058 11.2546 66.458 11.2155 66.158 11.0851L65.7668 10.9155L66.4189 9.45492Z" fill="#434C63"/>
<path d="M68.1925 13.2368C68.1403 13.5498 68.1664 13.8498 68.2446 14.1367C68.3229 14.4236 68.4663 14.6974 68.688 14.9452C68.8967 15.193 69.1706 15.4277 69.5096 15.6103C70.0313 15.9103 70.5008 16.0798 70.9181 16.1189L71.3485 15.3756C70.9311 15.3756 70.5268 15.2582 70.1095 15.0235C69.8878 14.893 69.7183 14.7496 69.5749 14.5931C69.4444 14.4236 69.3531 14.254 69.301 14.0584C69.2488 13.8628 69.2488 13.6672 69.2749 13.4585C69.314 13.2498 69.3923 13.0412 69.5096 12.8195C69.6401 12.5978 69.7835 12.4152 69.9661 12.2717C70.1356 12.1283 70.3312 12.037 70.5269 11.9849C70.7225 11.9327 70.9442 11.9196 71.1659 11.9588C71.3876 11.9979 71.6093 12.0761 71.831 12.2065C72.1961 12.4282 72.483 12.7021 72.6917 13.0412L73.1481 12.2457C72.9134 11.9718 72.5874 11.698 72.144 11.4502C71.7919 11.2415 71.4398 11.1111 71.1007 11.0589C70.7486 10.9937 70.4225 11.0068 70.0965 11.085C69.7705 11.1633 69.4836 11.3067 69.2097 11.5023C68.9358 11.6979 68.7141 11.9718 68.5185 12.3109C68.362 12.6239 68.2447 12.9369 68.1925 13.2368Z" fill="#434C63"/>
<path d="M76.9692 14.8539L73.7611 12.5065L73.2786 13.1586L74.4523 14.0193L72.1179 17.2144L72.9786 17.8534L75.313 14.6453L76.4997 15.506L76.9692 14.8539Z" fill="#434C63"/>
<path d="M75.9259 20.2921C76.1215 20.4747 76.3302 20.6181 76.5388 20.7225C76.7475 20.8268 76.9562 20.879 77.1518 20.9051C77.3474 20.9181 77.543 20.892 77.7256 20.8268C77.9082 20.7616 78.0647 20.6442 78.2081 20.4877C78.3125 20.3834 78.3777 20.253 78.4298 20.1226C78.482 19.9922 78.495 19.8487 78.495 19.7052C78.482 19.5618 78.4559 19.4183 78.3777 19.2619C78.3125 19.1054 78.2081 18.9619 78.0777 18.8185L78.0908 18.8054C78.3777 18.9489 78.6515 19.0141 78.9123 18.988C79.1601 18.9619 79.3818 18.8445 79.5644 18.6489C79.7991 18.3881 79.8774 18.1012 79.7991 17.7621C79.7209 17.4231 79.4862 17.084 79.0819 16.7058L77.7778 15.532L74.5696 19.0662L75.9259 20.2921ZM78.0777 16.797L78.3907 17.084C78.5994 17.2665 78.7298 17.4361 78.7689 17.5795C78.8211 17.723 78.7689 17.8665 78.6385 18.0099C78.482 18.1794 78.3124 18.2577 78.1429 18.2446C77.9603 18.2316 77.7778 18.1403 77.5822 17.9577L77.2822 17.6839L78.0777 16.797ZM77.1388 18.5837C77.3735 18.8054 77.5169 19.001 77.5691 19.1967C77.6082 19.3792 77.5561 19.5618 77.3996 19.7444C77.2431 19.9269 77.0735 19.9922 76.891 19.9661C76.7084 19.94 76.5128 19.8226 76.2911 19.6401L75.8607 19.2619L76.7736 18.2577L77.1388 18.5837Z" fill="#434C63"/>
<path d="M79.76 24.2957L80.3469 23.7741L79.0688 22.3396L79.9817 21.531L81.0772 22.7569L81.6771 22.2222L80.5686 20.9963L81.4423 20.2139L82.6421 21.5441L83.229 21.0224L81.325 18.8836L77.7647 22.0657L79.76 24.2957Z" fill="#434C63"/>
<path d="M84.1158 22.0788L80.2165 24.8305L80.8294 25.7043L82.5117 24.5175L83.7507 26.2781L82.0683 27.4518L82.6813 28.3386L86.5806 25.5869L85.9676 24.7131L84.4157 25.8086L83.1768 24.048L84.7287 22.9525L84.1158 22.0788Z" fill="#434C63"/>
<path d="M83.7246 30.1773L85.5503 29.2384L86.5415 31.1424L84.7157 32.0944L85.1982 33.0334L89.4366 30.8425L88.9541 29.8904L87.2587 30.7642L86.2676 28.8602L87.9629 27.9864L87.4674 27.0344L83.229 29.2253L83.7246 30.1773Z" fill="#434C63"/>
<path d="M91.5454 36.4883L87.0248 38.02L87.368 39.0328L91.8885 37.5011L91.5454 36.4883Z" fill="#434C63"/>
<path d="M86.2284 35.7068C86.3197 35.9676 86.4371 36.2024 86.5675 36.385C86.711 36.5806 86.8675 36.724 87.037 36.8284C87.2065 36.9327 87.4022 36.9979 87.5978 37.024C87.7934 37.0501 88.0021 37.024 88.2238 36.9457C88.4194 36.8805 88.5889 36.7762 88.7193 36.6458C88.8497 36.5154 88.9541 36.3589 89.0193 36.1763C89.0845 35.9937 89.1106 35.7981 89.1106 35.5764C89.0975 35.3547 89.0584 35.1069 88.9671 34.8461L88.6932 34.0375L90.4929 33.4246L90.1539 32.4204L85.6286 33.9463L86.2284 35.7068ZM88.002 34.2984L88.2107 34.8983C88.315 35.1982 88.3411 35.433 88.289 35.6155C88.2368 35.7981 88.0933 35.9285 87.8586 36.0068C87.6238 36.085 87.4282 36.072 87.2717 35.9546C87.1152 35.8372 86.9848 35.6286 86.8935 35.3286L86.6979 34.7418L88.002 34.2984Z" fill="#434C63"/>
<path d="M87.7673 41.0798L91.0798 42.6969C91.1972 42.7491 91.3015 42.8012 91.3928 42.8403C91.4841 42.8795 91.5623 42.9055 91.6145 42.9186V42.9316C91.5493 42.9316 91.445 42.9447 91.3276 42.9577C91.2102 42.9708 91.0668 42.9969 90.8972 43.0229L88.1977 43.4924L88.3672 44.4705L93.0621 43.6489L92.8665 42.5274L89.5931 40.9494C89.4757 40.8972 89.3714 40.8451 89.2932 40.819C89.2149 40.7929 89.1497 40.7668 89.0976 40.7407V40.7277C89.1628 40.7277 89.254 40.7146 89.3714 40.7016C89.4888 40.6886 89.6322 40.6625 89.7887 40.6364L92.4491 40.1669L92.2796 39.1888L87.5848 40.0104L87.7673 41.0798Z" fill="#434C63"/>
<path d="M93.8575 42.1622C94.1184 42.3709 94.4444 42.4622 94.8095 42.4361L94.7052 41.8362C94.5096 41.8362 94.3401 41.784 94.1966 41.6666C94.0531 41.5493 93.9749 41.4058 93.9358 41.2102C93.8575 40.7668 94.0271 40.4799 94.4444 40.3756L94.3401 39.7757C93.9749 39.8539 93.7141 40.0365 93.5315 40.3103C93.3489 40.5842 93.2968 40.9102 93.362 41.2884C93.4272 41.6536 93.5837 41.9405 93.8575 42.1622Z" fill="#434C63"/>
<path d="M10.0548 52.4387L6.1033 52.6213L6.14242 53.6906L10.1069 53.5081L10.1721 54.9687L10.9807 54.9296L10.7981 50.939L9.98957 50.9781L10.0548 52.4387Z" fill="#434C63"/>
<path d="M7.29001 57.1466L8.50286 56.964L8.73759 58.6072L9.52007 58.4898L9.28532 56.8597L10.446 56.6901L10.7068 58.4637L11.4893 58.3464L11.072 55.5164L6.35104 56.2076L6.78141 59.1549L7.56389 59.0375L7.29001 57.1466Z" fill="#434C63"/>
<path d="M12.6239 63.0021L12.337 61.8545L10.8112 61.398C10.7329 61.372 10.6677 61.3589 10.6025 61.3459C10.5373 61.3328 10.4721 61.3198 10.3938 61.3198V61.3067C10.5112 61.2285 10.6156 61.1372 10.7068 61.0459L11.8414 59.9505L11.5284 58.7116L9.62442 60.746L6.87272 59.7548L7.1857 60.9677L8.88106 61.4632C8.94627 61.4763 9.01147 61.4893 9.06364 61.5024C9.1158 61.5154 9.15493 61.5154 9.19406 61.5154V61.5285C9.14189 61.5676 9.08973 61.5937 9.0506 61.6328C9.01148 61.6589 8.97236 61.698 8.93324 61.7371L7.70736 62.9891L8.02036 64.2019L9.9374 62.0762L12.6239 63.0021Z" fill="#434C63"/>
<path d="M13.9802 66.4972L12.2066 67.2014L11.4241 65.193L13.1847 64.5019L12.7934 63.4977L8.35942 65.2452L8.75066 66.2494L10.6547 65.493L11.4502 67.5013L9.53312 68.2447L9.92436 69.2488L14.3714 67.5013L13.9802 66.4972Z" fill="#434C63"/>
<path d="M14.0584 73.9828C14.3844 73.9306 14.7235 73.8132 15.0626 73.6307C15.3625 73.4611 15.6234 73.2524 15.819 73.0047C16.0146 72.7569 16.1581 72.4961 16.2493 72.2092C16.3406 71.9223 16.3537 71.6223 16.3145 71.2963C16.2754 70.9702 16.1711 70.6573 15.9885 70.3443C15.7929 70.0052 15.5712 69.7183 15.3104 69.5096C15.0496 69.301 14.7626 69.1445 14.4627 69.0662C14.1627 68.988 13.8498 68.9619 13.5237 69.0141C13.1977 69.0662 12.8717 69.1836 12.5456 69.3662C12.2326 69.5357 11.9849 69.7444 11.7762 70.0052C11.5675 70.266 11.4371 70.5268 11.3589 70.8138C11.2806 71.1007 11.2546 71.4137 11.3067 71.7267C11.3589 72.0527 11.4632 72.3657 11.6458 72.6917C11.8284 73.0177 12.037 73.2785 12.2979 73.4872C12.5456 73.6958 12.8195 73.8393 13.1194 73.9306C13.4064 74.0089 13.7193 74.0349 14.0584 73.9828ZM12.7282 72.7569C12.5848 72.6395 12.4544 72.4961 12.337 72.3005C12.2327 72.1179 12.1805 71.9353 12.1674 71.7527C12.1544 71.5701 12.1805 71.3876 12.2457 71.218C12.3109 71.0485 12.4283 70.892 12.5717 70.7355C12.7152 70.579 12.8977 70.4486 13.1194 70.3182C13.3411 70.2008 13.5498 70.1095 13.7585 70.0704C13.9671 70.0182 14.1627 70.0183 14.3453 70.0574C14.5279 70.0835 14.6974 70.1617 14.8539 70.266C15.0104 70.3703 15.1408 70.5269 15.2452 70.7094C15.3495 70.9051 15.4147 71.0876 15.4277 71.2702C15.4408 71.4528 15.4147 71.6223 15.3495 71.7918C15.2843 71.9614 15.1669 72.1179 15.0104 72.2744C14.8539 72.4309 14.6714 72.5613 14.4366 72.6917C14.2149 72.8221 13.9932 72.9004 13.7976 72.9525C13.5889 73.0047 13.3933 73.0047 13.2238 72.9786C13.0412 72.9525 12.8847 72.8743 12.7282 72.7569Z" fill="#434C63"/>
<path d="M18.1012 73.8654C17.8795 73.9828 17.6578 74.1002 17.4622 74.2175C17.2535 74.3219 17.0579 74.4262 16.8623 74.5305C16.6666 74.6349 16.471 74.7262 16.2754 74.8175C16.0798 74.9087 15.8972 75 15.7016 75.0913C15.4538 75.2087 15.2451 75.2869 15.0756 75.3652C14.9061 75.4304 14.7496 75.4695 14.6322 75.4956C14.5148 75.5086 14.4105 75.5086 14.3192 75.4825C14.241 75.4434 14.1627 75.3913 14.0975 75.3C14.0193 75.1956 13.9671 75.0783 13.928 74.9348L13.289 75.4043C13.3542 75.5869 13.4585 75.7564 13.5889 75.939C13.7454 76.1476 13.9149 76.3041 14.0975 76.3824C14.2801 76.4737 14.4627 76.5128 14.6452 76.5128C14.8278 76.5128 15.0234 76.4737 15.2191 76.4085C15.4147 76.3433 15.6103 76.252 15.819 76.1607C15.9624 76.0955 16.1059 76.0303 16.2624 75.952C16.4189 75.8738 16.5884 75.7955 16.7579 75.7043C16.9275 75.613 17.1231 75.5217 17.3318 75.4173C17.5274 75.313 17.7491 75.1957 17.9968 75.0652L18.5967 75.8607L15.4277 78.2473L16.0668 79.095L19.8748 76.2259L18.1012 73.8654Z" fill="#434C63"/>
<path d="M22.6917 81.1555C22.8221 80.8686 22.8873 80.5686 22.9004 80.2687C22.9004 79.9687 22.8482 79.6688 22.7308 79.3688C22.6135 79.0689 22.4178 78.795 22.157 78.5342C21.8832 78.2473 21.5832 78.0386 21.2833 77.9082C20.9833 77.7778 20.6573 77.6996 20.3573 77.6996C20.0443 77.6996 19.7314 77.7648 19.4314 77.8952C19.1315 78.0256 18.8445 78.2212 18.5837 78.482C18.3359 78.7298 18.1403 79.0037 18.0099 79.2906C17.8795 79.5775 17.8143 79.8774 17.8143 80.1774C17.8143 80.4773 17.8795 80.7773 18.0099 81.0772C18.1403 81.3772 18.3359 81.6511 18.5837 81.9119C18.8445 82.1727 19.1184 82.3814 19.4184 82.5118C19.7183 82.6422 20.0182 82.7204 20.3312 82.7204C20.6442 82.7204 20.9442 82.6683 21.2572 82.5248C21.5702 82.3814 21.8571 82.1988 22.1309 81.9249C22.3657 81.7032 22.5613 81.4424 22.6917 81.1555ZM21.7397 80.6469C21.6354 80.8295 21.4789 81.012 21.2963 81.2077C21.1137 81.3902 20.9311 81.5337 20.7486 81.625C20.566 81.7293 20.3834 81.7815 20.2008 81.7945C20.0183 81.8076 19.8357 81.7814 19.6661 81.7162C19.4966 81.651 19.3271 81.5337 19.1706 81.3772C19.0271 81.2337 18.9228 81.0642 18.8576 80.8947C18.7924 80.7251 18.7793 80.5426 18.7924 80.36C18.8185 80.1774 18.8706 79.9948 18.975 79.8122C19.0793 79.6297 19.2227 79.4471 19.3923 79.2645C19.5748 79.095 19.7574 78.9515 19.94 78.8602C20.1226 78.7559 20.3182 78.7037 20.5008 78.6907C20.6834 78.6777 20.8659 78.6907 21.0485 78.7689C21.2311 78.8472 21.3876 78.9385 21.5441 79.095C21.7006 79.2515 21.8049 79.421 21.8701 79.5905C21.9353 79.7601 21.9483 79.9427 21.9223 80.1122C21.9092 80.2817 21.844 80.4643 21.7397 80.6469Z" fill="#434C63"/>
<path d="M26.1606 83.216L26.6562 82.59L24.361 80.7381L21.3615 84.4418L22.1961 85.12L24.7 82.0292L26.1606 83.216Z" fill="#434C63"/>
<path d="M29.9556 84.7549L26.591 86.1111C26.4606 86.1633 26.3693 86.2024 26.2911 86.2415C26.2128 86.2806 26.1606 86.3067 26.1085 86.3328H26.0954C26.1346 86.2807 26.1867 86.2155 26.2519 86.1111C26.3171 86.0068 26.3954 85.9025 26.4867 85.759L27.9342 83.4768L27.0996 82.9421L24.5435 86.9719L25.4564 87.5456L28.8863 86.1894C29.0036 86.1372 29.108 86.0981 29.1992 86.059C29.2905 86.0198 29.3557 85.9807 29.4079 85.9546L29.4209 85.9677C29.3818 86.0198 29.3166 86.0981 29.2514 86.2024C29.1862 86.3067 29.108 86.4241 29.0167 86.5676L27.543 88.8889L28.3776 89.4236L30.9337 85.3939L29.9556 84.7549Z" fill="#434C63"/>
<path d="M34.4288 87.0371L33.568 88.902C33.3333 88.915 33.1246 88.902 32.929 88.8759C32.7334 88.8498 32.5508 88.7976 32.3813 88.7194C32.1596 88.6151 32.0292 88.4977 31.977 88.3412C31.9249 88.1847 31.9509 88.0021 32.0553 87.7674L32.7464 86.2546L31.7814 85.8112L31.025 87.4544C30.8294 87.8717 30.8033 88.2369 30.9337 88.5499C31.0641 88.8628 31.338 89.1237 31.7684 89.3062C32.0031 89.4106 32.2509 89.4888 32.4987 89.5279C32.7464 89.5671 33.0073 89.5801 33.2681 89.5671L32.4465 91.3668L33.4115 91.8102L35.4069 87.4805L34.4288 87.0371Z" fill="#434C63"/>
<path d="M38.9411 89.5148L39.1888 88.7585L36.4632 87.8586L34.9765 92.3969L37.8065 93.3229L38.0412 92.5796L36.2285 91.9797L36.6197 90.819L38.1847 91.3276L38.4324 90.5842L36.8675 90.0626L37.2327 88.9541L38.9411 89.5148Z" fill="#434C63"/>
<path d="M41.2494 89.3714C40.8972 89.4236 40.5843 89.5279 40.2973 89.6975C40.0235 89.867 39.7757 90.0887 39.5801 90.3756C39.3845 90.6495 39.254 90.9755 39.1627 91.3537C39.0845 91.7058 39.0715 92.0318 39.1236 92.3448C39.1758 92.6578 39.2801 92.9317 39.4497 93.1795C39.6192 93.4272 39.8409 93.6359 40.1148 93.8185C40.3886 93.988 40.7146 94.1184 41.0928 94.2097C41.6797 94.3401 42.1883 94.3532 42.5926 94.2619L42.7752 93.4142C42.3839 93.5446 41.9536 93.5576 41.4841 93.4533C41.2363 93.4011 41.0277 93.3099 40.8451 93.1925C40.6625 93.0751 40.519 92.9317 40.4147 92.7621C40.3104 92.5926 40.2452 92.41 40.2061 92.2014C40.18 91.9927 40.193 91.771 40.2452 91.5232C40.2973 91.2754 40.3886 91.0537 40.506 90.8712C40.6234 90.6886 40.7799 90.5321 40.9494 90.4278C41.1189 90.3104 41.3276 90.2452 41.5493 90.206C41.771 90.1669 42.0057 90.18 42.2666 90.2322C42.6839 90.3234 43.036 90.506 43.3359 90.7668L43.5316 89.867C43.2316 89.6713 42.8273 89.5279 42.3318 89.4106C41.9797 89.3323 41.6015 89.3193 41.2494 89.3714Z" fill="#434C63"/>
<path d="M47.0397 90.1409L45.3965 91.9797C45.3573 92.0188 45.3182 92.0579 45.2921 92.1101C45.266 92.1622 45.2269 92.2014 45.2139 92.2275H45.2008L45.4225 89.9844L44.3532 89.88L43.8706 94.6271L44.94 94.7314L45.1748 92.397H45.1878C45.2139 92.4491 45.2269 92.5013 45.253 92.5535C45.2791 92.6057 45.3052 92.6448 45.3182 92.6709L46.6354 94.8879L47.9004 95.0183L46.2572 92.3579L48.2264 90.2582L47.0397 90.1409Z" fill="#434C63"/>
<path d="M52.1257 90.18L50.0913 93.1925C50.013 93.3099 49.9609 93.4011 49.9087 93.4663C49.8696 93.5315 49.8305 93.5968 49.8044 93.6489H49.7913C49.7913 93.5837 49.8044 93.4924 49.8044 93.375C49.8044 93.2577 49.8044 93.1142 49.8044 92.9447L49.7261 90.2452L48.735 90.2713L48.8784 95.0443L49.9478 95.0182L52.0214 91.9797C52.0996 91.8753 52.1518 91.771 52.204 91.6928C52.2561 91.6015 52.2952 91.5363 52.3083 91.4841H52.3213C52.3213 91.5493 52.3083 91.6536 52.3083 91.771C52.3083 91.8884 52.3083 92.0448 52.3083 92.2013L52.3865 94.9531L53.3777 94.9269L53.2472 90.1539L52.1257 90.18Z" fill="#434C63"/>
<path d="M57.6552 89.4627L56.0642 92.723C56.012 92.8404 55.9598 92.9447 55.9337 93.0229C55.9077 93.1012 55.8816 93.1664 55.8555 93.2186H55.8425C55.8425 93.1534 55.8294 93.0621 55.8164 92.9447C55.8033 92.8273 55.7772 92.6839 55.7512 92.5274L55.2947 89.867L54.3166 90.0365L55.1252 94.7444L56.1815 94.5618L57.8117 91.2494C57.8638 91.132 57.916 91.0276 57.9551 90.9363C57.9943 90.8451 58.0203 90.7668 58.0334 90.7147H58.0464C58.0464 90.7799 58.0594 90.8842 58.0725 91.0016C58.0855 91.119 58.1116 91.2624 58.1377 91.4319L58.6072 94.1445L59.5853 93.975L58.7767 89.2671L57.6552 89.4627Z" fill="#434C63"/>
<path d="M56.338 88.3933C55.8816 88.4716 55.6077 88.302 55.5034 87.8847L54.9035 87.9891C54.9817 88.3542 55.1643 88.615 55.4382 88.7976C55.712 88.9802 56.0381 89.0323 56.4163 88.9671C56.7814 88.9019 57.0553 88.7454 57.277 88.4716C57.4857 88.2108 57.577 87.8847 57.5509 87.5196L56.951 87.6239C56.951 87.8195 56.8988 87.989 56.7814 88.1325C56.6771 88.2759 56.5206 88.3672 56.338 88.3933Z" fill="#434C63"/>
<path d="M64.7496 89.3323C64.7366 89.4497 64.7366 89.5801 64.7235 89.6844C64.7235 89.8018 64.7105 89.9191 64.7105 90.0365C64.6713 89.9843 64.6322 89.9322 64.5931 89.88C64.554 89.8278 64.5149 89.7887 64.4757 89.7496L62.7152 88.0934L61.6327 88.4976L64.4757 91.0146C64.4496 91.1711 64.4236 91.3015 64.3844 91.4059C64.3453 91.5102 64.3062 91.6145 64.241 91.6928C64.1888 91.771 64.1236 91.8362 64.0584 91.8753C63.9932 91.9275 63.928 91.9666 63.8497 91.9927C63.6411 92.0709 63.4194 92.084 63.1977 92.0579L63.4976 92.8795C63.5889 92.8795 63.6933 92.8665 63.8106 92.8404C63.928 92.8143 64.0714 92.7752 64.241 92.71C64.4757 92.6187 64.6713 92.5144 64.8278 92.3839C64.9843 92.2535 65.1017 92.1101 65.206 91.9275C65.2973 91.758 65.3756 91.5493 65.4277 91.3276C65.4799 91.1059 65.519 90.8451 65.5451 90.5582L65.9233 86.8936L64.88 87.2848L64.7496 89.3323Z" fill="#434C63"/>
<path d="M69.1314 85.2113L70.0052 86.8805L68.1012 87.8847L67.2144 86.2024L66.2754 86.711L68.5055 90.9233L69.4444 90.4278L68.4924 88.615L70.3964 87.6108L71.3485 89.4236L72.3005 88.928L70.0704 84.7026L69.1314 85.2113Z" fill="#434C63"/>
<path d="M73.748 82.1466L73.7611 85.772C73.7611 85.9024 73.7611 86.0198 73.7611 86.0981C73.7611 86.1763 73.7741 86.2415 73.7741 86.3067L73.7611 86.3198C73.735 86.2676 73.6828 86.1893 73.6176 86.085C73.5524 85.9807 73.4742 85.8633 73.3829 85.7329L71.8049 83.542L71.0094 84.1288L73.8002 87.989L74.6739 87.3631V83.6854C74.6739 83.555 74.6739 83.4376 74.6609 83.3463C74.6479 83.242 74.6479 83.1638 74.6348 83.1116L74.6479 83.0986C74.687 83.1638 74.7261 83.242 74.8044 83.3463C74.8696 83.4507 74.9609 83.5681 75.0521 83.7115L76.6562 85.9416L77.4517 85.3547L74.6609 81.4945L73.748 82.1466Z" fill="#434C63"/>
<path d="M80.4642 80.712C80.3599 80.6077 80.2426 80.5164 80.1252 80.4643C79.9948 80.399 79.8644 80.373 79.7209 80.373C79.5774 80.373 79.434 80.3991 79.2775 80.4512C79.121 80.5034 78.9645 80.5947 78.808 80.712L78.795 80.699C78.9645 80.4251 79.0428 80.1513 79.0297 79.9035C79.0167 79.6427 78.9254 79.421 78.7428 79.2254C78.5081 78.9776 78.2212 78.8732 77.8821 78.9254C77.543 78.9776 77.1779 79.1862 76.7736 79.5644L75.4955 80.7642L78.7558 84.2462L80.0861 82.9943C80.2817 82.8117 80.4382 82.6161 80.5555 82.4204C80.6729 82.2248 80.7512 82.0162 80.7772 81.8206C80.8033 81.6249 80.8033 81.4293 80.7511 81.2467C80.699 81.0381 80.6077 80.8685 80.4642 80.712ZM77.5952 81.4423L76.7736 80.5686L77.0866 80.2817C77.2822 80.0861 77.4648 79.9817 77.6082 79.9426C77.7517 79.9035 77.8951 79.9687 78.0386 80.1122C78.1951 80.2817 78.2603 80.4512 78.2342 80.6338C78.2081 80.8164 78.1038 80.999 77.9082 81.1685L77.5952 81.4423ZM79.447 82.5769L79.0297 82.9682L78.1038 81.977L78.482 81.6249C78.7167 81.4032 78.9254 81.2728 79.121 81.2467C79.3166 81.2207 79.4862 81.2859 79.6557 81.4685C79.8252 81.638 79.8774 81.8205 79.8383 82.0031C79.7861 82.1857 79.6557 82.3813 79.447 82.5769Z" fill="#434C63"/>
<path d="M82.3944 79.434L81.4684 78.6385L82.5378 77.3865L81.9379 76.8649L80.8685 78.1299L79.9687 77.3604L81.1424 75.9911L80.5425 75.4825L78.6776 77.6473L82.29 80.7642L84.2331 78.5081L83.6463 77.9864L82.3944 79.434Z" fill="#434C63"/>
<path d="M84.5461 75.2217C84.7157 74.987 84.833 74.7392 84.9113 74.5044C84.9895 74.2697 85.0156 74.0349 84.9895 73.8132C84.9765 73.5915 84.9113 73.3829 84.7939 73.2003C84.6896 73.0047 84.5331 72.8482 84.3375 72.7178C83.9462 72.4439 83.542 72.3657 83.1507 72.483C82.7595 72.6004 82.3813 72.9134 82.0292 73.4351L81.0772 74.8044L84.9895 77.53L85.6025 76.6562L84.2201 75.7042L84.5461 75.2217ZM83.855 74.9087L83.6202 75.2608L82.3161 74.3479L82.5769 73.9698C82.7595 73.7089 82.9421 73.5655 83.1247 73.5003C83.3072 73.4481 83.5159 73.4872 83.7245 73.6437C83.9593 73.8002 84.0767 73.9958 84.1027 74.2045C84.1158 74.4131 84.0375 74.6479 83.855 74.9087Z" fill="#434C63"/>
<path d="M88.1586 71.0876C88.0412 71.3093 87.8977 71.4919 87.7412 71.6223C87.5847 71.7658 87.4022 71.8571 87.2196 71.9092C87.024 71.9614 86.8284 71.9744 86.6197 71.9483C86.411 71.9223 86.1894 71.844 85.9807 71.7267C85.759 71.6093 85.5634 71.4528 85.4199 71.2832C85.2765 71.1137 85.1721 70.9311 85.12 70.7225C85.0678 70.5268 85.0548 70.3182 85.0809 70.0835C85.1069 69.8618 85.1852 69.6401 85.3156 69.4053C85.5242 69.0271 85.7851 68.7402 86.1241 68.5316L85.3286 68.1012C85.0548 68.336 84.7939 68.675 84.5592 69.1314C84.3636 69.4835 84.2462 69.8357 84.194 70.1878C84.1419 70.5399 84.168 70.879 84.2462 71.192C84.3375 71.5049 84.481 71.8049 84.6896 72.0657C84.8983 72.3265 85.1721 72.5613 85.5112 72.7308C85.8242 72.9004 86.1372 73.0047 86.4502 73.0438C86.7632 73.0829 87.0631 73.0568 87.337 72.9655C87.6239 72.8743 87.8847 72.7178 88.1325 72.5091C88.3803 72.2874 88.602 72.0136 88.7845 71.6745C89.0714 71.1398 89.2279 70.6703 89.254 70.2399L88.4976 69.8226C88.4976 70.253 88.3803 70.6703 88.1586 71.0876Z" fill="#434C63"/>
<path d="M86.7762 64.228L88.7585 67.2666C88.8367 67.384 88.8889 67.4752 88.941 67.5404C88.9932 67.6057 89.0323 67.6578 89.0715 67.71V67.723C89.0193 67.697 88.941 67.6578 88.8237 67.6057C88.7193 67.5535 88.5889 67.5014 88.4324 67.4492L85.9155 66.4711L85.5634 67.397L90.0104 69.1315L90.4017 68.1273L88.4064 65.0366C88.3412 64.9322 88.2759 64.8279 88.2107 64.7496C88.1455 64.6714 88.1064 64.6062 88.0673 64.5671V64.554C88.1325 64.5932 88.2107 64.6323 88.3281 64.6714C88.4455 64.7236 88.5759 64.7757 88.7324 64.8409L91.2885 65.8321L91.6406 64.9061L87.1935 63.1717L86.7762 64.228Z" fill="#434C63"/>
<path d="M88.4716 61.4632L92.3056 62.4283L92.5665 61.398L88.7324 60.4199L89.0845 59.0115L88.302 58.8158L87.3239 62.6761L88.1064 62.8717L88.4716 61.4632Z" fill="#434C63"/>
<path d="M92.4752 57.7856L91.2624 57.603L91.5102 55.9598L90.7277 55.8425L90.4799 57.4857L89.3192 57.3031L89.5931 55.5295L88.8106 55.4121L88.3803 58.2421L93.1012 58.9593L93.5446 55.999L92.7621 55.8816L92.4752 57.7856Z" fill="#434C63"/>
<path d="M89.7496 53.6516L93.7011 53.8342L93.7533 52.7648L89.8018 52.5822L89.867 51.1216L89.0584 51.0824L88.8628 55.06L89.6713 55.0992L89.7496 53.6516Z" fill="#434C63"/>
<path d="M91.0668 48.3699C91.0668 49.035 91.6145 49.5827 92.2796 49.5827C92.9447 49.5827 93.4924 49.035 93.4924 48.3699C93.4924 47.7048 92.9447 47.157 92.2796 47.157C91.6145 47.157 91.0668 47.6917 91.0668 48.3699Z" fill="#434C63"/>
<path d="M55.7512 48.2003H53.169V56.3641H55.7512V48.2003Z" fill="#434C63"/>
<path d="M59.6505 48.2003H57.0683V56.3641H59.6505V48.2003Z" fill="#434C63"/>
<path d="M63.5368 48.2003H60.9546V56.3641H63.5368V48.2003Z" fill="#434C63"/>
<path d="M67.4231 48.2003H64.8409V56.3641H67.4231V48.2003Z" fill="#434C63"/>
<path d="M37.2978 34.8852H34.3375V56.4293H37.2978V34.8852Z" fill="#434C63"/>
<path d="M42.0579 34.8852H39.0975V56.4293H42.0579V34.8852Z" fill="#434C63"/>
<path d="M46.818 34.8852H43.8576V56.4293H46.818V34.8852Z" fill="#434C63"/>
<path d="M53.6515 38.7063C53.3907 38.8237 53.1038 38.902 52.7908 38.9541V40.0496C53.0125 40.0235 53.2081 39.9974 53.3777 39.9452C53.5472 39.8931 53.7167 39.8279 53.8732 39.7366V43.2708H55.3339V38.2499H54.4731C54.1993 38.4325 53.9254 38.589 53.6515 38.7063Z" fill="#434C63"/>
<path d="M59.3114 38.5499C59.0245 38.3542 58.6985 38.2629 58.3203 38.2629C57.9551 38.2629 57.6421 38.3412 57.3683 38.4846C57.0944 38.6281 56.8727 38.8368 56.7292 39.1106C56.5858 39.3845 56.5075 39.6975 56.5075 40.0626C56.5075 40.3495 56.5597 40.6103 56.6771 40.8451C56.7945 41.0668 56.9509 41.2494 57.1596 41.3798C57.3683 41.5102 57.59 41.5754 57.8377 41.5754C58.2551 41.5754 58.5681 41.432 58.7767 41.1581H58.8028C58.8028 41.5232 58.7115 41.8101 58.5289 41.9927C58.3464 42.1753 58.0855 42.2796 57.7464 42.2796C57.603 42.2796 57.4335 42.2535 57.2509 42.2014C57.0683 42.1492 56.9249 42.097 56.8205 42.0318V43.1534C57.1466 43.2838 57.5117 43.349 57.9421 43.349C58.6463 43.349 59.194 43.1012 59.5983 42.6187C60.0026 42.1362 60.1982 41.458 60.1982 40.5973C60.1982 40.1148 60.133 39.7105 59.9895 39.3584C59.82 39.0193 59.5983 38.7455 59.3114 38.5499ZM58.6202 40.3887C58.555 40.493 58.4507 40.5582 58.3072 40.5582C58.1899 40.5582 58.0855 40.506 58.0073 40.4017C57.929 40.2974 57.8899 40.1539 57.8899 39.9583C57.8899 39.7496 57.929 39.5931 58.0073 39.5018C58.0855 39.4106 58.1899 39.3584 58.3203 39.3584C58.4507 39.3584 58.542 39.4106 58.6202 39.5279C58.6985 39.6453 58.7376 39.7888 58.7376 39.9583C58.7246 40.1409 58.6854 40.2843 58.6202 40.3887Z" fill="#434C63"/>
<path d="M63.5629 40.0235C63.1325 40.0235 62.8065 40.1669 62.5717 40.4408H62.5456C62.5717 40.1017 62.6761 39.8409 62.8717 39.6323C63.0673 39.4236 63.3151 39.3193 63.6281 39.3193C63.9411 39.3193 64.2019 39.3845 64.4236 39.5279V38.3803C64.2019 38.3021 63.8889 38.2499 63.5237 38.2499C63.0282 38.2499 62.6108 38.3542 62.2587 38.5759C61.9066 38.7976 61.6328 39.1237 61.4371 39.554C61.2415 39.9844 61.1372 40.4799 61.1372 41.0277C61.1372 41.758 61.3067 42.3187 61.6197 42.723C61.9457 43.1273 62.4022 43.3229 63.0021 43.3229C63.3412 43.3229 63.6542 43.2447 63.928 43.0882C64.2019 42.9317 64.4236 42.723 64.567 42.4492C64.7235 42.1753 64.7887 41.8753 64.7887 41.5493C64.7887 41.0929 64.6714 40.7277 64.4497 40.4408C64.254 40.1669 63.9411 40.0235 63.5629 40.0235ZM63.3151 42.071C63.2368 42.1753 63.1325 42.2405 63.0021 42.2405C62.8847 42.2405 62.7804 42.1883 62.7021 42.071C62.6239 41.9536 62.5848 41.8102 62.5848 41.6406C62.5848 41.458 62.6239 41.3146 62.6891 41.1972C62.7674 41.0929 62.8717 41.0277 63.0021 41.0277C63.1455 41.0277 63.2499 41.0798 63.3151 41.1842C63.3803 41.2885 63.4194 41.4319 63.4194 41.6145C63.4325 41.8101 63.3933 41.9666 63.3151 42.071Z" fill="#434C63"/>
<path d="M67.5665 40.1539C67.4491 40.1539 67.3318 40.1539 67.1883 40.18L67.2405 39.4888H68.8837V38.3542H66.1059L65.9233 41.3015C66.1841 41.2494 66.458 41.2102 66.7579 41.2102C67.3578 41.2102 67.6578 41.3928 67.6578 41.758C67.6578 41.9275 67.5926 42.0579 67.4622 42.1492C67.3318 42.2405 67.1362 42.2927 66.8884 42.2927C66.5102 42.2927 66.145 42.2014 65.8059 42.0188V43.1534C65.9624 43.2186 66.1711 43.2577 66.4058 43.2968C66.6536 43.336 66.8884 43.349 67.1101 43.349C67.5143 43.349 67.8665 43.2707 68.1664 43.1273C68.4663 42.9838 68.7011 42.7752 68.8576 42.5013C69.0141 42.2405 69.0923 41.9406 69.0923 41.6015C69.0923 41.1581 68.9619 40.806 68.688 40.5452C68.4272 40.2843 68.049 40.1539 67.5665 40.1539Z" fill="#434C63"/>
<path d="M24.7653 66.3016L48.8915 66.2494L49.7001 67.1753H51.7084L52.517 66.2494L76.5389 66.3667L76.5519 42.0058L73.7481 41.9014L73.7872 34.6896L51.1346 34.7809V30.2165H48.735L46.1007 28.3516H41.445V29.734H39.9713V28.3647H35.2374L32.6291 30.2556H30.2165V35.1461H27.5039L27.4648 41.784L24.7522 41.9927L24.7653 66.3016ZM31.6641 31.6902H33.1116L35.7199 29.7992H38.5498V31.1685H42.8925V29.7992H45.6573L48.2916 31.6641H49.7131L49.7001 56.4424H51.1346V46.2572L69.5618 46.2963V58.8289H31.6641V31.6902ZM28.9384 36.5806H30.2165V60.2504H70.9964V44.8618L51.1346 44.8227V36.2285L72.3396 36.1372L72.1961 61.8284H28.795L28.9384 36.5806ZM27.4648 43.2186L27.3474 63.2629H73.6176L73.735 43.349L75.1043 43.4012L75.0913 64.9322L51.8519 64.8148L51.0433 65.7408H50.3521L49.5436 64.8148L26.1998 64.867L26.1868 43.3099L27.4648 43.2186Z" fill="#434C63"/>
<path d="M52.2691 73.096L61.0459 73.109V71.5441L51.7866 71.531L50.5477 72.3917L49.3088 71.531H40.0756V73.096H48.8263L50.5607 74.2958L52.2691 73.096Z" fill="#434C63"/>
</svg>
